<?xml version="1.0" standalone="no"?>
<!DOCTYPE svg PUBLIC "-//W3C//DTD SVG 20010904//EN"
 "http://www.w3.org/TR/2001/REC-SVG-20010904/DTD/svg10.dtd">
<svg version="1.0" xmlns="http://www.w3.org/2000/svg"
 width="100.000000pt" height="100.000000pt" viewBox="0 0 100.000000 100.000000"
 preserveAspectRatio="xMidYMid meet">
<metadata>
Created by potrace 1.11, written by Peter Selinger 2001-2013
</metadata>
<g transform="translate(0.000000,100.000000) scale(0.100000,-0.100000)"
fill="#000000" stroke="none">
<path d="M410 950 c-41 -27 -79 -60 -85 -73 l-10 -24 -149 44 c-98 30 -152 41
-158 35 -6 -6 -7 -15 -4 -20 6 -10 265 -96 325 -108 21 -5 31 -12 31 -25 0
-11 -7 -19 -16 -19 -37 0 -344 -105 -344 -117 0 -26 26 -23 170 22 80 25 146
45 147 45 2 0 3 -9 3 -20 0 -10 9 -28 20 -38 22 -21 29 16 -74 -427 -26 -109
-44 -205 -42 -212 4 -11 61 -13 278 -11 l273 3 -2 39 c-2 22 -10 67 -19 100
-8 34 -17 70 -20 81 -2 11 -6 29 -8 40 -5 20 -43 184 -72 304 -15 61 -15 64 5
85 12 12 21 30 21 40 0 12 5 16 18 12 9 -3 77 -24 150 -47 98 -30 137 -38 145
-30 17 17 -9 35 -78 56 -33 9 -102 30 -153 46 -51 16 -99 29 -107 29 -8 0 -15
8 -15 18 0 13 13 21 48 30 26 7 107 32 180 55 108 34 132 45 132 60 0 24 -14
22 -185 -31 -124 -38 -130 -39 -133 -20 -4 20 -159 129 -184 127 -7 0 -47 -22
-88 -49z m165 -41 c36 -23 64 -47 62 -53 -5 -14 -277 -20 -277 -5 0 16 112 97
137 98 6 1 42 -18 78 -40z m23 -131 c3 -15 -8 -16 -95 -15 -85 2 -98 4 -101
20 -3 16 5 17 95 15 82 -3 98 -6 101 -20z m37 -78 c0 -13 -22 -15 -135 -15
-118 0 -135 2 -138 17 -3 15 10 16 135 15 115 -2 138 -4 138 -17z m-110 -72
c-11 -7 -46 -25 -78 -40 l-59 -28 7 33 c11 47 10 47 83 47 56 -1 64 -2 47 -12z
m84 -55 c6 -20 9 -38 8 -39 -7 -6 -262 -132 -264 -130 -1 1 4 24 11 51 l12 50
105 52 c57 28 107 52 111 52 4 1 12 -16 17 -36z m31 -128 l8 -36 -168 -84
-168 -84 13 50 c8 28 15 53 18 55 8 8 282 142 285 139 2 -2 7 -20 12 -40z m27
-123 l10 -39 -194 -96 c-106 -54 -196 -97 -199 -97 -3 0 -3 14 1 31 4 17 8 39
9 48 2 10 68 49 177 103 96 48 177 87 180 87 4 1 11 -16 16 -37z m31 -125 l11
-38 -119 -59 c-118 -59 -118 -59 -204 -58 -48 0 -85 2 -84 4 5 4 383 192 384
191 1 -1 7 -19 12 -40z m22 -99 c0 -7 3 -23 6 -34 6 -21 2 -22 -73 -22 l-78
-1 65 34 c73 38 80 40 80 23z"/>
</g>
</svg>
